<?xml version="1.0" encoding="UTF-8" standalone="no"?><!DOCTYPE svg PUBLIC "-//W3C//DTD SVG 1.1//EN" "http://www.w3.org/Graphics/SVG/1.1/DTD/svg11.dtd"><svg width="100%" height="100%" viewBox="0 0 400 114" version="1.1" xmlns="http://www.w3.org/2000/svg" xmlns:xlink="http://www.w3.org/1999/xlink" xml:space="preserve" style="fill-rule:evenodd;clip-rule:evenodd;stroke-linejoin:round;stroke-miterlimit:1.41421;"><rect id="Black" x="0" y="0" width="540" height="800" style="fill:none;"/><g id="BBC-Blocks-.28.full.29."><path id="C-.28.r.29." d="M400,114.008l0,-113.993l-121.26,0l0,113.993l121.26,0Zm-27.63,-81.256c-9.343,-5.259 -18.686,-7.988 -27.431,-7.988c-9.345,0 -17.097,2.923 -23.061,8.769c-6.161,5.649 -9.343,12.666 -9.343,21.435c0,8.377 3.18,15.586 9.144,21.432c6.361,5.457 13.915,8.183 23.059,8.183c9.74,0 19.284,-2.923 28.625,-8.767l0,12.278c-8.747,4.676 -18.487,7.015 -29.223,7.015c-9.142,0 -16.698,-1.753 -23.059,-5.26c-6.162,-3.704 -11.131,-8.576 -14.91,-14.617c-3.577,-6.625 -5.566,-13.248 -5.566,-20.264c0,-11.692 4.176,-21.24 12.722,-29.035c8.35,-7.794 18.689,-11.887 30.813,-11.887c8.749,0 18.09,2.144 28.228,6.625l0,12.081l0.002,0Z" style="fill-rule:nonzero;"/><g id="B-.28.m.29."><path d="M260.645,0l-121.263,0l0,114.011l121.263,0l0,-114.011Zm-84.288,95.691l0,-78.735l21.072,0c6.758,0 11.729,0.78 15.505,2.534c3.777,1.755 6.759,4.287 8.549,7.405c1.986,2.924 2.982,6.432 3.18,10.524c-0.198,7.796 -4.174,13.254 -12.523,16.761c6.162,0.974 10.733,3.313 14.115,7.016c3.379,3.508 5.169,7.987 5.169,13.057c0,4.092 -0.993,7.797 -3.181,10.72c-2.187,3.311 -5.169,5.847 -9.144,7.797c-4.174,1.949 -9.343,2.923 -15.506,2.923l-27.236,0l0,-0.002l0,0Z" style="fill-rule:nonzero;"/><path d="M197.9,26.907l-9.941,0l0,23.774l7.756,0c5.965,0 10.339,-1.17 12.924,-3.312c2.583,-2.339 3.976,-5.457 3.976,-8.964c0,-7.601 -4.972,-11.498 -14.715,-11.498Z" style="fill-rule:nonzero;"/><path d="M198.697,60.811l-10.736,0l0,24.75l11.332,0c5.966,0 10.339,-0.387 12.925,-1.168c2.188,-0.974 3.976,-2.339 5.367,-4.288c1.194,-2.143 1.791,-4.289 1.989,-6.822c-0.199,-2.727 -0.995,-4.869 -2.188,-6.431c-1.393,-2.142 -3.38,-3.7 -5.965,-4.481c-2.782,-1.168 -7.158,-1.56 -12.724,-1.56Z" style="fill-rule:nonzero;"/></g><g id="B-.28.l.29."><path d="M121.296,0.008l-121.296,0l0,114.028l121.296,0l0,-114.028Zm-84.311,95.705l0,-78.746l21.078,0c6.76,0 11.732,0.779 15.509,2.534c3.778,1.755 6.761,4.287 8.551,7.406c1.987,2.924 2.983,6.432 3.182,10.525c-0.199,7.798 -4.175,13.256 -12.527,16.764c6.164,0.974 10.736,3.314 14.118,7.017c3.38,3.508 5.171,7.988 5.171,13.059c0,4.092 -0.994,7.798 -3.181,10.721c-2.188,3.312 -5.171,5.848 -9.147,7.798c-4.175,1.95 -9.346,2.924 -15.51,2.924l-27.244,0l0,-0.002l0,0Z" style="fill-rule:nonzero;"/><path d="M58.46,26.891l-9.942,0l0,23.774l7.756,0c5.966,0 10.339,-1.17 12.925,-3.312c2.583,-2.339 3.976,-5.457 3.976,-8.964c0,-7.601 -4.972,-11.498 -14.715,-11.498Z" style="fill-rule:nonzero;"/><path d="M59.257,60.796l-10.737,0l0,24.749l11.333,0c5.966,0 10.339,-0.387 12.925,-1.168c2.187,-0.974 3.976,-2.339 5.367,-4.288c1.194,-2.142 1.79,-4.289 1.989,-6.822c-0.199,-2.726 -0.996,-4.869 -2.188,-6.431c-1.393,-2.142 -3.38,-3.699 -5.965,-4.48c-2.782,-1.169 -7.158,-1.56 -12.724,-1.56Z" style="fill-rule:nonzero;"/></g></g></svg>